<svg width="22" height="22" viewBox="0 0 22 22" fill="none" xmlns="http://www.w3.org/2000/svg">
<path fill-rule="evenodd" clip-rule="evenodd" d="M5.66914 18.6472C6.45455 18.6472 7.09365 19.2852 7.09365 20.0706C7.09365 20.856 6.45455 21.4951 5.66914 21.4951C4.88374 21.4951 4.24574 20.856 4.24574 20.0706C4.24574 19.2852 4.88374 18.6472 5.66914 18.6472ZM18.0775 18.6472C18.864 18.6472 19.5031 19.2852 19.5031 20.0706C19.5031 20.856 18.864 21.4951 18.0775 21.4951C17.2921 21.4951 16.6541 20.856 16.6541 20.0706C16.6541 19.2852 17.2921 18.6472 18.0775 18.6472ZM0.965743 0.0104358L3.25375 0.406437C3.62225 0.471338 3.90275 0.777139 3.93465 1.15114L4.11279 3.27438C4.15823 3.81594 4.61093 4.23243 5.1544 4.23267C5.31125 4.23274 5.46645 4.23281 5.61999 4.23287L7.38474 4.23371C7.52541 4.23378 7.6645 4.23386 7.80204 4.23393L9.75058 4.23499C9.87299 4.23507 9.99394 4.23514 10.1134 4.23521L11.4789 4.23608C11.5871 4.23615 11.6939 4.23623 11.7993 4.2363L13.0003 4.23719C13.0951 4.23726 13.1887 4.23733 13.2809 4.23741L14.3281 4.23831C14.4104 4.23838 14.4916 4.23846 14.5716 4.23854L15.2598 4.23922C15.3328 4.2393 15.4047 4.23937 15.4755 4.23945L16.2725 4.24037C16.3347 4.24045 16.3958 4.24053 16.4559 4.24061L17.1288 4.24155C17.181 4.24163 17.2322 4.2417 17.2825 4.24178L17.7102 4.2425C17.755 4.24258 17.7989 4.24266 17.842 4.24274L18.3184 4.2437C18.3549 4.24378 18.3905 4.24387 18.4254 4.24395L18.7186 4.24468C18.7489 4.24476 18.7786 4.24484 18.8075 4.24493L19.1218 4.24592C19.1454 4.246 19.1683 4.24608 19.1906 4.24617L19.3752 4.24692C19.3939 4.247 19.4121 4.24709 19.4298 4.24717L19.6165 4.24819C19.63 4.24827 19.6431 4.24836 19.6558 4.24845L19.7575 4.24922C19.7675 4.2493 19.7772 4.24939 19.7864 4.24948L19.8597 4.25026C19.8668 4.25034 19.8735 4.25043 19.8799 4.25052L19.9298 4.25131C19.9345 4.2514 19.9389 4.25148 19.9431 4.25157L19.9746 4.25237C19.9775 4.25246 19.9802 4.25255 19.9827 4.25264L20.0056 4.25372C20.007 4.25381 20.0082 4.2539 20.0094 4.25399C20.0202 4.25499 20.0217 4.25517 20.0233 4.25535C20.636 4.34445 21.175 4.66455 21.5424 5.15736C21.9098 5.64906 22.0638 6.25516 21.9758 6.86236L20.9319 14.0762C20.735 15.449 19.5426 16.4841 18.1566 16.4841H6.14346C4.69476 16.4841 3.46825 15.3533 3.35055 13.9068L2.4839 3.59963C2.40088 2.61238 1.66155 1.80578 0.685242 1.63734C0.23534 1.55814 -0.0649607 1.13244 0.0120396 0.682539C0.0912399 0.232637 0.525742 -0.0599645 0.965743 0.0104358ZM4.93371 5.88264C4.60982 5.88243 4.35505 6.15934 4.38219 6.4821L4.99506 13.7715C5.04346 14.3787 5.53956 14.8341 6.14566 14.8341H18.1544C18.7275 14.8341 19.217 14.4073 19.2984 13.8408L20.3434 6.62586C20.3676 6.45426 20.3247 6.28266 20.2202 6.14406C20.1281 6.01963 19.9976 5.93446 19.8489 5.90024C19.8123 5.89181 19.7745 5.89047 19.737 5.89079L19.6173 5.89148C19.5923 5.89158 19.5648 5.89167 19.5348 5.89177L18.9116 5.89271C18.8591 5.89275 18.8044 5.89278 18.7477 5.89281L17.2825 5.89275C17.2008 5.89272 17.1175 5.89268 17.0327 5.89265L15.3606 5.89163C15.2604 5.89156 15.1591 5.89148 15.0568 5.89141L14.1107 5.89065C14.0029 5.89056 13.8943 5.89047 13.785 5.89037L12.7828 5.88949C12.6696 5.88939 12.5559 5.88929 12.4417 5.88918L11.7513 5.88855C11.6355 5.88844 11.5194 5.88833 11.4029 5.88822L10.3494 5.88724C10.232 5.88713 10.1144 5.88702 9.9969 5.88691L9.29219 5.88625C9.17491 5.88615 9.05777 5.88604 8.94082 5.88593L8.24209 5.8853C8.12621 5.88519 8.01067 5.88509 7.89554 5.88499L6.87197 5.88411C6.75985 5.88401 6.64834 5.88392 6.5375 5.88383L5.24398 5.88285C5.13959 5.88277 5.03615 5.8827 4.93371 5.88264ZM16.3877 8.2982C16.8431 8.2982 17.2127 8.6678 17.2127 9.1232C17.2127 9.5786 16.8431 9.94821 16.3877 9.94821H13.3385C12.882 9.94821 12.5135 9.5786 12.5135 9.1232C12.5135 8.6678 12.882 8.2982 13.3385 8.2982H16.3877Z" fill="#F6EA1A"/>
</svg>
