<svg width="20" height="20" viewBox="0 0 20 20" fill="none" xmlns="http://www.w3.org/2000/svg">
<path d="M13.2222 0H6.77778C6.18889 0 5.62222 0.233333 5.2 0.655555L0.644444 5.21111C0.233333 5.62222 0 6.18889 0 6.77778V13.2222C0 13.8111 0.233333 14.3778 0.655555 14.7889L5.21111 19.3444C5.62222 19.7667 6.18889 20 6.77778 20H13.2222C13.8111 20 14.3778 19.7667 14.7889 19.3444L19.3444 14.7889C19.7667 14.3778 20 13.8111 20 13.2222V6.77778C20 6.18889 19.7667 5.62222 19.3444 5.21111L14.7889 0.655555C14.3778 0.233333 13.8111 0 13.2222 0ZM13.9333 13.9333C13.8305 14.0363 13.7084 14.1181 13.574 14.1738C13.4396 14.2296 13.2955 14.2583 13.15 14.2583C13.0045 14.2583 12.8604 14.2296 12.726 14.1738C12.5916 14.1181 12.4695 14.0363 12.3667 13.9333L10 11.5667L7.64444 13.9222C7.54158 14.0251 7.41945 14.1067 7.28505 14.1624C7.15064 14.218 7.00659 14.2467 6.86111 14.2467C6.71563 14.2467 6.57158 14.218 6.43717 14.1624C6.30277 14.1067 6.18065 14.0251 6.07778 13.9222C5.97491 13.8194 5.89331 13.6972 5.83764 13.5628C5.78196 13.4284 5.75331 13.2844 5.75331 13.1389C5.75331 12.9934 5.78196 12.8494 5.83764 12.715C5.89331 12.5805 5.97491 12.4584 6.07778 12.3556L8.43333 10L6.06667 7.64444C5.9638 7.54158 5.8822 7.41945 5.82653 7.28505C5.77085 7.15064 5.7422 7.00659 5.7422 6.86111C5.7422 6.71563 5.77085 6.57158 5.82653 6.43717C5.8822 6.30277 5.9638 6.18065 6.06667 6.07778C6.16954 5.97491 6.29166 5.89331 6.42606 5.83764C6.56047 5.78196 6.70452 5.75331 6.85 5.75331C6.99548 5.75331 7.13953 5.78196 7.27394 5.83764C7.40834 5.89331 7.53046 5.97491 7.63333 6.07778L10 8.43333L12.3556 6.07778C12.4584 5.97491 12.5805 5.89331 12.715 5.83764C12.8494 5.78196 12.9934 5.75331 13.1389 5.75331C13.2844 5.75331 13.4284 5.78196 13.5628 5.83764C13.6972 5.89331 13.8194 5.97491 13.9222 6.07778C14.0251 6.18065 14.1067 6.30277 14.1624 6.43717C14.218 6.57158 14.2467 6.71563 14.2467 6.86111C14.2467 7.00659 14.218 7.15064 14.1624 7.28505C14.1067 7.41945 14.0251 7.54158 13.9222 7.64444L11.5667 10L13.9222 12.3556C14.3667 12.7889 14.3667 13.5 13.9333 13.9333Z" fill="#FFDD00"/>
</svg>
