<svg width="329" height="55" viewBox="0 0 329 55" fill="none" xmlns="http://www.w3.org/2000/svg">
<line x1="-8.74228e-08" y1="27.3792" x2="328.317" y2="27.3791" stroke="#FFDD00" stroke-width="2"/>
<path d="M125.366 50.2727C127.889 50.2727 128.741 48.7045 129.184 47.9886H129.423V50H131.366V32.5455H129.355V38.9886H129.184C128.741 38.3068 127.957 36.7386 125.4 36.7386C122.093 36.7386 119.809 39.3636 119.809 43.4886C119.809 47.6477 122.093 50.2727 125.366 50.2727ZM125.639 48.4659C123.116 48.4659 121.821 46.25 121.821 43.4545C121.821 40.6932 123.082 38.5455 125.639 38.5455C128.093 38.5455 129.389 40.5227 129.389 43.4545C129.389 46.4205 128.059 48.4659 125.639 48.4659ZM140.818 50.2727C143.477 50.2727 145.42 48.9432 146.034 46.9659L144.091 46.4205C143.579 47.7841 142.395 48.4659 140.818 48.4659C138.457 48.4659 136.829 46.9403 136.735 44.1364H146.238V43.2841C146.238 38.4091 143.341 36.7386 140.613 36.7386C137.068 36.7386 134.716 39.5341 134.716 43.5568C134.716 47.5795 137.034 50.2727 140.818 50.2727ZM136.735 42.3977C136.872 40.3608 138.312 38.5455 140.613 38.5455C142.795 38.5455 144.193 40.1818 144.193 42.3977H136.735ZM151.309 32.5455H149.298V50H151.309V32.5455ZM154.993 50H157.005V36.9091H154.993V50ZM156.016 34.7273C156.8 34.7273 157.448 34.1136 157.448 33.3636C157.448 32.6136 156.8 32 156.016 32C155.232 32 154.584 32.6136 154.584 33.3636C154.584 34.1136 155.232 34.7273 156.016 34.7273ZM171.393 36.9091H169.211L165.598 47.3409H165.461L161.848 36.9091H159.666L164.507 50H166.552L171.393 36.9091ZM179.068 50.2727C181.727 50.2727 183.67 48.9432 184.284 46.9659L182.341 46.4205C181.829 47.7841 180.645 48.4659 179.068 48.4659C176.707 48.4659 175.079 46.9403 174.985 44.1364H184.488V43.2841C184.488 38.4091 181.591 36.7386 178.863 36.7386C175.318 36.7386 172.966 39.5341 172.966 43.5568C172.966 47.5795 175.284 50.2727 179.068 50.2727ZM174.985 42.3977C175.122 40.3608 176.562 38.5455 178.863 38.5455C181.045 38.5455 182.443 40.1818 182.443 42.3977H174.985ZM187.548 50H189.559V41.7159C189.559 39.9432 190.957 38.6477 192.866 38.6477C193.403 38.6477 193.957 38.75 194.093 38.7841V36.7386C193.863 36.7216 193.335 36.7045 193.037 36.7045C191.468 36.7045 190.105 37.5909 189.627 38.8864H189.491V36.9091H187.548V50ZM198.172 54.9091C199.987 54.9091 201.265 53.946 202.024 51.9091L207.598 36.9432L205.399 36.9091L201.785 47.3409H201.649L198.035 36.9091H195.853L200.694 50.0682L200.319 51.0909C199.586 53.0852 198.683 53.2727 197.217 52.8977L196.706 54.6705C196.91 54.7727 197.49 54.9091 198.172 54.9091Z" fill="#FFDD00"/>
<path d="M65.946 11.8693C65.5199 7.69318 62.4091 5.30682 58.1903 5.30682C53.5369 5.30682 49.9148 8.50284 49.9148 14.2727C49.9148 20.017 53.4517 23.2386 58.1903 23.2386C62.9801 23.2386 65.6307 19.983 65.946 16.8892L61.6847 16.8636C61.3864 18.5426 60.125 19.5398 58.2756 19.5398C55.7869 19.5398 54.2188 17.7415 54.2188 14.2727C54.2188 10.9403 55.7528 9.00568 58.3011 9.00568C60.2188 9.00568 61.4716 10.1222 61.6847 11.8693H65.946ZM84.8345 14.2727C84.8345 8.50284 81.1868 5.30682 76.4993 5.30682C71.7947 5.30682 68.1726 8.50284 68.1726 14.2727C68.1726 20.017 71.7947 23.2386 76.4993 23.2386C81.1868 23.2386 84.8345 20.0426 84.8345 14.2727ZM80.522 14.2727C80.522 17.6903 79.022 19.5398 76.4993 19.5398C73.9851 19.5398 72.4766 17.6903 72.4766 14.2727C72.4766 10.8551 73.9851 9.00568 76.4993 9.00568C79.022 9.00568 80.522 10.8551 80.522 14.2727ZM87.2976 5.54545V23H91.4055V12.2188H91.5504L95.7436 22.8892H98.3686L102.562 12.2784H102.707V23H106.815V5.54545H101.59L97.1584 16.3523H96.9538L92.522 5.54545H87.2976ZM109.446 23H121.616V19.5739H113.665V15.9858H120.994V12.5511H113.665V8.97159H121.616V5.54545H109.446V23ZM130.71 23C136.028 23 139.327 19.7188 139.327 14.2642C139.327 8.81818 136.028 5.54545 130.702 5.54545H124.259V23H130.71ZM128.477 19.4034V9.14204H130.489C133.489 9.14204 135.099 10.5057 135.099 14.2642C135.099 18.0398 133.489 19.4034 130.548 19.4034H128.477ZM158.264 14.2727C158.264 8.50284 154.616 5.30682 149.929 5.30682C145.224 5.30682 141.602 8.50284 141.602 14.2727C141.602 20.017 145.224 23.2386 149.929 23.2386C154.616 23.2386 158.264 20.0426 158.264 14.2727ZM153.952 14.2727C153.952 17.6903 152.452 19.5398 149.929 19.5398C147.415 19.5398 145.906 17.6903 145.906 14.2727C145.906 10.8551 147.415 9.00568 149.929 9.00568C152.452 9.00568 153.952 10.8551 153.952 14.2727ZM160.727 23H164.946V17.0256H167.111L170.298 23H174.901L171.278 16.3523C173.196 15.483 174.304 13.7699 174.304 11.358C174.304 7.76989 171.858 5.54545 167.938 5.54545H160.727V23ZM164.946 13.7017V8.94602H167.026C168.918 8.94602 169.932 9.73864 169.932 11.358C169.932 12.9773 168.918 13.7017 167.026 13.7017H164.946ZM180.837 5.54545H176.618V23H180.837V5.54545ZM187.261 23L188.411 19.3352H194.437L195.587 23H200.121L194.232 5.54545H188.616L182.727 23H187.261ZM189.417 16.1307L191.352 9.94318H191.488L193.431 16.1307H189.417ZM213.609 23C218.927 23 222.225 19.7188 222.225 14.2642C222.225 8.81818 218.927 5.54545 213.6 5.54545H207.157V23H213.609ZM211.376 19.4034V9.14204H213.387C216.387 9.14204 217.998 10.5057 217.998 14.2642C217.998 18.0398 216.387 19.4034 213.447 19.4034H211.376ZM227.433 23L228.583 19.3352H234.609L235.759 23H240.293L234.404 5.54545H228.788L222.898 23H227.433ZM229.589 16.1307L231.523 9.94318H231.66L233.603 16.1307H229.589ZM258.783 11.2472H263.053C262.627 7.76989 259.525 5.30682 255.485 5.30682C250.823 5.30682 247.141 8.58807 247.141 14.2983C247.141 19.821 250.533 23.2386 255.536 23.2386C260.028 23.2386 263.241 20.4517 263.241 15.7642V13.4545H255.715V16.5312H259.175C259.133 18.3722 257.854 19.5398 255.57 19.5398C252.954 19.5398 251.445 17.6051 251.445 14.2472C251.445 10.9148 253.039 9.00568 255.57 9.00568C257.258 9.00568 258.408 9.83239 258.783 11.2472ZM265.727 23H277.898V19.5739H269.946V15.9858H277.276V12.5511H269.946V8.97159H277.898V5.54545H265.727V23ZM270.159 3.99432L271.847 2.01704L273.543 3.99432H277.028V3.88352L273.347 0.0653405H270.355L266.665 3.88352V3.99432H270.159Z" fill="#FFDD00"/>
</svg>
